<svg width="36" height="36" viewBox="0 0 36 36" fill="none" xmlns="http://www.w3.org/2000/svg">
<path d="M18 22.8C20.651 22.8 22.8 20.651 22.8 18C22.8 15.349 20.651 13.2 18 13.2C15.349 13.2 13.2 15.349 13.2 18C13.2 20.651 15.349 22.8 18 22.8Z" fill="#0173d8"/>
<path d="M13.5 3L10.755 6H6C4.35 6 3 7.35 3 9V27C3 28.65 4.35 30 6 30H30C31.65 30 33 28.65 33 27V9C33 7.35 31.65 6 30 6H25.245L22.5 3H13.5ZM18 25.5C13.86 25.5 10.5 22.14 10.5 18C10.5 13.86 13.86 10.5 18 10.5C22.14 10.5 25.5 13.86 25.5 18C25.5 22.14 22.14 25.5 18 25.5Z" fill="#0173d8"/>
</svg>
