<svg width="36" height="36" viewBox="0 0 36 36" fill="none" xmlns="http://www.w3.org/2000/svg">
<path d="M30 3H9C7.191 3 4.5 4.1985 4.5 7.5V28.5C4.5 31.8015 7.191 33 9 33H31.5V30H9.018C8.325 29.982 7.5 29.709 7.5 28.5C7.5 27.291 8.325 27.018 9.018 27H31.5V4.5C31.5 4.10218 31.342 3.72064 31.0607 3.43934C30.7794 3.15804 30.3978 3 30 3V3ZM14.2545 7.5C14.8524 7.5 15.4259 7.73753 15.8487 8.16033C16.2715 8.58313 16.509 9.15657 16.509 9.7545C16.509 10.3524 16.2715 10.9259 15.8487 11.3487C15.4259 11.7715 14.8524 12.009 14.2545 12.009C13.6566 12.009 13.0831 11.7715 12.6603 11.3487C12.2375 10.9259 12 10.3524 12 9.7545C12 9.15657 12.2375 8.58313 12.6603 8.16033C13.0831 7.73753 13.6566 7.5 14.2545 7.5V7.5ZM18 19.5H10.5L15 15L17.25 17.0985L21.75 12L27 19.5H18Z" fill="#0173d8"/>
</svg>
