<svg width="30" height="26" viewBox="0 0 30 26" fill="none" xmlns="http://www.w3.org/2000/svg">
<path d="M29.9906 1.56172C29.9906 1.15011 29.8271 0.755347 29.5361 0.464289C29.245 0.173232 28.8502 0.00971734 28.4386 0.00971734C28.3595 0.00971734 28.2835 0.0215172 28.2071 0.0329698V0H1.55201V0.00971734C1.14039 0.00971734 0.745629 0.173232 0.454572 0.464289C0.163514 0.755347 0 1.15011 0 1.56172V23.9464H0.0173525C0.104809 24.7207 0.754138 25.3249 1.55166 25.3249V25.3346H28.2068V25.3016C28.2828 25.3131 28.3588 25.3249 28.4383 25.3249C29.2361 25.3249 29.8855 24.721 29.9729 23.9464H30V1.56172H29.9906ZM26.5448 21.879H22.7755C22.7628 21.8257 22.7434 21.7742 22.7179 21.7256L22.7241 21.7222L14.8395 8.06578L14.8364 8.06751C14.7494 7.88687 14.6133 7.7344 14.4436 7.62759C14.2739 7.52078 14.0776 7.46396 13.8771 7.46365C13.6711 7.46391 13.4696 7.5237 13.2967 7.63582C13.1239 7.74794 12.9872 7.90761 12.903 8.09562L7.65591 17.1835L6.37113 14.9585L6.3694 14.9596C6.32359 14.8643 6.25185 14.7839 6.16241 14.7275C6.07297 14.6712 5.96946 14.6412 5.86375 14.641C5.63504 14.641 5.43896 14.7781 5.35046 14.9734L3.45557 18.2555V3.46529H26.5448V21.879Z" fill="#0173d8"/>
<path d="M21.2894 12.2106C23.2253 12.2106 24.7946 10.6413 24.7946 8.7054C24.7946 6.76953 23.2253 5.2002 21.2894 5.2002C19.3535 5.2002 17.7842 6.76953 17.7842 8.7054C17.7842 10.6413 19.3535 12.2106 21.2894 12.2106Z" fill="#0173d8"/>
</svg>
